<svg width="31" height="24" viewBox="0 0 31 24" fill="none" xmlns="http://www.w3.org/2000/svg">
<path d="M17.455 20.91C15.8118 20.0727 14.4322 18.7974 13.4686 17.2249C12.505 15.6525 11.995 13.8442 11.995 12C11.995 10.1558 12.505 8.34752 13.4686 6.77507C14.4322 5.20263 15.8118 3.92727 17.455 3.09C17.6191 3.0062 17.7569 2.87868 17.8531 2.72151C17.9493 2.56435 18.0003 2.38365 18.0003 2.19937C18.0003 2.01509 17.9493 1.8344 17.8531 1.67723C17.7569 1.52007 17.6191 1.39255 17.455 1.30875C15.7674 0.44278 13.8968 -0.00601009 12 -1.48717e-06C8.8174 -1.43974e-06 5.76515 1.26428 3.51472 3.51472C1.26428 5.76515 0 8.8174 0 12C0 15.1826 1.26428 18.2348 3.51472 20.4853C5.76515 22.7357 8.8174 24 12 24C13.8968 24.006 15.7674 23.5572 17.455 22.6912C17.6191 22.6074 17.7569 22.4799 17.8531 22.3228C17.9493 22.1656 18.0003 21.9849 18.0003 21.8006C18.0003 21.6163 17.9493 21.4356 17.8531 21.2785C17.7569 21.1213 17.6191 20.9938 17.455 20.91ZM12 22C10.5688 21.9975 9.15474 21.6879 7.85347 21.0919C6.5522 20.496 5.39402 19.6277 4.45718 18.5456C3.52035 17.4636 2.82669 16.1931 2.42309 14.82C2.01949 13.4468 1.91535 12.003 2.11771 10.5862C2.32006 9.16929 2.8242 7.81238 3.59605 6.60711C4.36791 5.40184 5.38949 4.37629 6.59176 3.59977C7.79403 2.82326 9.14898 2.31386 10.565 2.10602C11.9811 1.89818 13.4253 1.99672 14.8 2.395C13.3095 3.51381 12.0999 4.96413 11.2668 6.6312C10.4337 8.29827 10 10.1363 10 12C10 13.8636 10.4337 15.7017 11.2668 17.3688C12.0999 19.0359 13.3095 20.4862 14.8 21.605C13.8902 21.8689 12.9474 22.0019 12 22ZM29.3962 11.0812L26.0837 9.6525L25.795 5.9225C25.7794 5.72399 25.7048 5.53468 25.5809 5.37881C25.457 5.22294 25.2894 5.1076 25.0995 5.04759C24.9097 4.98757 24.7062 4.98559 24.5152 5.04192C24.3242 5.09825 24.1544 5.21031 24.0275 5.36375L21.7038 8.1775L18.24 7.32125C18.049 7.27424 17.8484 7.2846 17.6633 7.35101C17.4782 7.41743 17.3168 7.53697 17.1992 7.69466C17.0817 7.85235 17.0133 8.0412 17.0025 8.23759C16.9917 8.43397 17.0391 8.62916 17.1388 8.79875L19.0225 12L17.1388 15.2012C17.0391 15.3708 16.9917 15.566 17.0025 15.7624C17.0133 15.9588 17.0817 16.1476 17.1992 16.3053C17.3168 16.463 17.4782 16.5826 17.6633 16.649C17.8484 16.7154 18.049 16.7258 18.24 16.6787L21.7038 15.8225L24.0275 18.6362C24.1544 18.7897 24.3242 18.9017 24.5152 18.9581C24.7062 19.0144 24.9097 19.0124 25.0995 18.9524C25.2894 18.8924 25.457 18.7771 25.5809 18.6212C25.7048 18.4653 25.7794 18.276 25.795 18.0775L26.0837 14.3475L29.3962 12.9187C29.5759 12.8415 29.729 12.7134 29.8365 12.5501C29.9441 12.3868 30.0014 12.1955 30.0014 12C30.0014 11.8045 29.9441 11.6132 29.8365 11.4499C29.729 11.2866 29.5759 11.1585 29.3962 11.0812ZM24.7362 12.75C24.5691 12.8223 24.4249 12.9389 24.3192 13.0871C24.2134 13.2354 24.1502 13.4097 24.1362 13.5912L23.9925 15.4525L22.845 14.0637C22.7512 13.95 22.6334 13.8584 22.5001 13.7955C22.3668 13.7327 22.2212 13.7 22.0737 13.7C21.9929 13.7003 21.9124 13.71 21.8337 13.7287L20.0688 14.1662L21.045 12.5075C21.1356 12.3537 21.1833 12.1785 21.1833 12C21.1833 11.8215 21.1356 11.6463 21.045 11.4925L20.0688 9.83375L21.8337 10.2712C22.0167 10.3164 22.2088 10.3089 22.3877 10.2496C22.5666 10.1903 22.7251 10.0817 22.845 9.93625L23.9925 8.5475L24.1362 10.4087C24.1502 10.5903 24.2134 10.7646 24.3192 10.9129C24.4249 11.0611 24.5691 11.1777 24.7362 11.25L26.4762 12L24.7362 12.75Z" fill="#00D751"/>
</svg>
