<svg width="70" height="70" viewBox="0 0 70 70" fill="none" xmlns="http://www.w3.org/2000/svg">
<rect x="1" y="1" width="68" height="68" rx="19" fill="#9EAE9E" stroke="#E3E3E3" stroke-width="2"/>
<path d="M34 38C34 38.2652 33.8946 38.5196 33.7071 38.7071C33.5196 38.8946 33.2652 39 33 39H32V45C32 45.2652 31.8946 45.5196 31.7071 45.7071C31.5196 45.8946 31.2652 46 31 46C30.7348 46 30.4804 45.8946 30.2929 45.7071C30.1054 45.5196 30 45.2652 30 45V39H29C28.7348 39 28.4804 38.8946 28.2929 38.7071C28.1054 38.5196 28 38.2652 28 38C28 37.7348 28.1054 37.4804 28.2929 37.2929C28.4804 37.1054 28.7348 37 29 37H33C33.2652 37 33.5196 37.1054 33.7071 37.2929C33.8946 37.4804 34 37.7348 34 38ZM26 37C25.7348 37 25.4804 37.1054 25.2929 37.2929C25.1054 37.4804 25 37.7348 25 38V40.5H23V38C23 37.7348 22.8946 37.4804 22.7071 37.2929C22.5196 37.1054 22.2652 37 22 37C21.7348 37 21.4804 37.1054 21.2929 37.2929C21.1054 37.4804 21 37.7348 21 38V45C21 45.2652 21.1054 45.5196 21.2929 45.7071C21.4804 45.8946 21.7348 46 22 46C22.2652 46 22.5196 45.8946 22.7071 45.7071C22.8946 45.5196 23 45.2652 23 45V42.5H25V45C25 45.2652 25.1054 45.5196 25.2929 45.7071C25.4804 45.8946 25.7348 46 26 46C26.2652 46 26.5196 45.8946 26.7071 45.7071C26.8946 45.5196 27 45.2652 27 45V38C27 37.7348 26.8946 37.4804 26.7071 37.2929C26.5196 37.1054 26.2652 37 26 37ZM48 44H46.5V38C46.5 37.7348 46.3946 37.4804 46.2071 37.2929C46.0196 37.1054 45.7652 37 45.5 37C45.2348 37 44.9804 37.1054 44.7929 37.2929C44.6054 37.4804 44.5 37.7348 44.5 38V45C44.5 45.2652 44.6054 45.5196 44.7929 45.7071C44.9804 45.8946 45.2348 46 45.5 46H48C48.2652 46 48.5196 45.8946 48.7071 45.7071C48.8946 45.5196 49 45.2652 49 45C49 44.7348 48.8946 44.4804 48.7071 44.2929C48.5196 44.1054 48.2652 44 48 44ZM42.2675 37.0362C42.0567 36.9777 41.8325 36.9899 41.6293 37.0709C41.4261 37.152 41.2551 37.2974 41.1425 37.485L39 41.0562L36.8575 37.485C36.745 37.2974 36.574 37.1519 36.3709 37.0708C36.1677 36.9897 35.9436 36.9774 35.7328 37.0358C35.522 37.0943 35.3362 37.2202 35.2039 37.3944C35.0715 37.5685 34.9999 37.7813 35 38V45C35 45.2652 35.1054 45.5196 35.2929 45.7071C35.4804 45.8946 35.7348 46 36 46C36.2652 46 36.5196 45.8946 36.7071 45.7071C36.8946 45.5196 37 45.2652 37 45V41.61L38.1425 43.515C38.2313 43.6631 38.357 43.7856 38.5073 43.8707C38.6576 43.9558 38.8273 44.0005 39 44.0005C39.1727 44.0005 39.3424 43.9558 39.4927 43.8707C39.643 43.7856 39.7687 43.6631 39.8575 43.515L41 41.61V45C41 45.2652 41.1054 45.5196 41.2929 45.7071C41.4804 45.8946 41.7348 46 42 46C42.2652 46 42.5196 45.8946 42.7071 45.7071C42.8946 45.5196 43 45.2652 43 45V38C43 37.7814 42.9284 37.5688 42.7961 37.3947C42.6638 37.2206 42.4782 37.0947 42.2675 37.0362ZM44 34C43.7348 34 43.4804 33.8946 43.2929 33.7071C43.1054 33.5196 43 33.2652 43 33V31H37C36.7348 31 36.4804 30.8946 36.2929 30.7071C36.1054 30.5196 36 30.2652 36 30V24H25V33C25 33.2652 24.8946 33.5196 24.7071 33.7071C24.5196 33.8946 24.2652 34 24 34C23.7348 34 23.4804 33.8946 23.2929 33.7071C23.1054 33.5196 23 33.2652 23 33V24C23 23.4696 23.2107 22.9609 23.5858 22.5858C23.9609 22.2107 24.4696 22 25 22H37C37.1314 21.9999 37.2615 22.0257 37.3829 22.0759C37.5042 22.1261 37.6146 22.1997 37.7075 22.2925L44.7075 29.2925C44.8003 29.3854 44.8739 29.4958 44.9241 29.6172C44.9743 29.7385 45.0001 29.8686 45 30V33C45 33.2652 44.8946 33.5196 44.7071 33.7071C44.5196 33.8946 44.2652 34 44 34ZM41.5863 29L38 25.4138V29H41.5863Z" fill="black"/>
</svg>
