<svg width="70" height="70" viewBox="0 0 70 70" fill="none" xmlns="http://www.w3.org/2000/svg">
<rect x="1" y="1" width="68" height="68" rx="19" fill="#9EAE9E" stroke="#E3E3E3" stroke-width="2"/>
<path d="M47.865 45.5C45.9613 42.2087 43.0275 39.8487 39.6038 38.73C41.2973 37.7218 42.6131 36.1856 43.349 34.3572C44.085 32.5289 44.2004 30.5095 43.6776 28.6092C43.1548 26.7089 42.0226 25.0327 40.455 23.8382C38.8873 22.6436 36.9709 21.9966 35 21.9966C33.0291 21.9966 31.1127 22.6436 29.545 23.8382C27.9774 25.0327 26.8452 26.7089 26.3224 28.6092C25.7996 30.5095 25.915 32.5289 26.651 34.3572C27.3869 36.1856 28.7027 37.7218 30.3963 38.73C26.9725 39.8475 24.0388 42.2075 22.135 45.5C22.0652 45.6138 22.0189 45.7405 21.9988 45.8725C21.9787 46.0045 21.9853 46.1392 22.0182 46.2687C22.051 46.3981 22.1094 46.5197 22.19 46.6262C22.2706 46.7327 22.3716 46.8219 22.4873 46.8887C22.6029 46.9555 22.7308 46.9985 22.8633 47.0151C22.9958 47.0316 23.1303 47.0215 23.2588 46.9853C23.3873 46.9491 23.5073 46.8874 23.6116 46.8041C23.7159 46.7208 23.8025 46.6174 23.8663 46.5C26.2213 42.43 30.3838 40 35 40C39.6163 40 43.7788 42.43 46.1338 46.5C46.1975 46.6174 46.2841 46.7208 46.3884 46.8041C46.4927 46.8874 46.6127 46.9491 46.7412 46.9853C46.8698 47.0215 47.0042 47.0316 47.1367 47.0151C47.2692 46.9985 47.3971 46.9555 47.5127 46.8887C47.6284 46.8219 47.7294 46.7327 47.81 46.6262C47.8906 46.5197 47.949 46.3981 47.9818 46.2687C48.0147 46.1392 48.0213 46.0045 48.0012 45.8725C47.9811 45.7405 47.9348 45.6138 47.865 45.5ZM28 31C28 29.6155 28.4105 28.2622 29.1797 27.111C29.9489 25.9599 31.0421 25.0627 32.3212 24.5328C33.6003 24.003 35.0078 23.8644 36.3656 24.1345C37.7235 24.4046 38.9708 25.0713 39.9497 26.0503C40.9287 27.0292 41.5954 28.2765 41.8655 29.6344C42.1356 30.9922 41.997 32.3997 41.4672 33.6788C40.9373 34.9579 40.0401 36.0511 38.889 36.8203C37.7379 37.5895 36.3845 38 35 38C33.1441 37.998 31.3648 37.2599 30.0524 35.9476C28.7401 34.6352 28.002 32.8559 28 31Z" fill="black"/>
</svg>
