<svg width="70" height="70" viewBox="0 0 70 70" fill="none" xmlns="http://www.w3.org/2000/svg">
<rect x="1" y="1" width="68" height="68" rx="19" fill="#9EAE9E" stroke="#E3E3E3" stroke-width="2"/>
<path d="M47.3467 27.6268C47.286 27.4769 47.1899 27.3439 47.0666 27.2393C46.9433 27.1346 46.7964 27.0615 46.6386 27.0261C46.4808 26.9907 46.3167 26.9941 46.1605 27.036C46.0043 27.0779 45.8606 27.1571 45.7417 27.2668L40.7042 31.9155L38.5505 31.453L38.088 29.2993L42.7367 24.2618C42.8464 24.1429 42.9255 23.9992 42.9675 23.843C43.0094 23.6868 43.0128 23.5227 42.9774 23.3649C42.942 23.2071 42.8689 23.0602 42.7642 22.9369C42.6596 22.8136 42.5266 22.7174 42.3767 22.6568C41.0104 22.1041 39.5292 21.8954 38.0634 22.0491C36.5975 22.2027 35.1918 22.714 33.9698 23.5381C32.7478 24.3621 31.7469 25.4737 31.055 26.7751C30.3631 28.0765 30.0014 29.5279 30.0017 31.0018C30.0001 32.2464 30.2554 33.4779 30.7517 34.6193L23.2255 41.1268C23.2067 41.1418 23.1892 41.1593 23.1717 41.1755C22.4215 41.9258 22 42.9433 22 44.0043C22 44.5296 22.1035 45.0498 22.3045 45.5352C22.5056 46.0205 22.8002 46.4616 23.1717 46.833C23.5432 47.2045 23.9842 47.4992 24.4695 47.7002C24.9549 47.9013 25.4751 48.0047 26.0005 48.0047C27.0614 48.0047 28.079 47.5833 28.8292 46.833C28.8455 46.8168 28.863 46.798 28.878 46.7805L35.3842 39.2518C36.7547 39.8534 38.2537 40.1037 39.7453 39.98C41.237 39.8564 42.6742 39.3626 43.927 38.5435C45.1797 37.7244 46.2084 36.6058 46.9199 35.2889C47.6314 33.9721 48.0032 32.4985 48.0017 31.0018C48.0037 29.845 47.7812 28.6988 47.3467 27.6268ZM39.0017 38.0018C37.818 38.0002 36.654 37.6992 35.618 37.1268C35.4172 37.0159 35.1845 36.9774 34.9587 37.0176C34.733 37.0579 34.5279 37.1746 34.378 37.348L27.3905 45.4405C27.0123 45.7998 26.5088 45.9971 25.9873 45.9904C25.4658 45.9837 24.9675 45.7736 24.5987 45.4048C24.2299 45.036 24.0198 44.5377 24.0131 44.0162C24.0064 43.4947 24.2037 42.9912 24.563 42.613L32.6492 35.6268C32.823 35.4767 32.9398 35.2714 32.9801 35.0454C33.0204 34.8194 32.9817 34.5864 32.8705 34.3855C32.233 33.2326 31.9338 31.9231 32.0074 30.6078C32.0809 29.2924 32.5242 28.0244 33.2862 26.9497C34.0482 25.875 35.098 25.0371 36.3149 24.5325C37.5319 24.0278 38.8665 23.8768 40.1655 24.0968L36.2655 28.323C36.1569 28.4407 36.0783 28.5828 36.0361 28.7372C35.9939 28.8917 35.9894 29.054 36.023 29.2105L36.7305 32.5018C36.7709 32.69 36.8649 32.8626 37.001 32.9987C37.1372 33.1349 37.3097 33.2288 37.498 33.2693L40.7917 33.9768C40.9482 34.0104 41.1106 34.0059 41.265 33.9637C41.4194 33.9215 41.5615 33.8428 41.6792 33.7343L45.9055 29.8343C46.0739 30.838 46.0217 31.8665 45.7525 32.848C45.4833 33.8295 45.0034 34.7407 44.3464 35.518C43.6894 36.2953 42.8709 36.9201 41.9479 37.3491C41.0249 37.778 40.0195 38.0008 39.0017 38.0018Z" fill="black"/>
</svg>

